<svg width="512" height="512" viewBox="0 0 512 512" fill="none" xmlns="http://www.w3.org/2000/svg">
  <path d="M256 468C256 468 392 327 392 214C392 129 331 64 256 64C181 64 120 129 120 214C120 327 256 468 256 468Z" fill="#E64C3C"/>
  <path d="M256 118C270 99 291 86 317 82C307 103 291 118 272 128L256 118Z" fill="#2E8B57"/>
  <path d="M252 120C237 98 211 84 183 84C195 107 213 123 235 132L252 120Z" fill="#3E9E66"/>
  <circle cx="256" cy="214" r="74" fill="#FFF6EB"/>
  <path d="M202 204C217 192 235 186 256 186C277 186 295 192 310 204" stroke="#E64C3C" stroke-width="10" stroke-linecap="round"/>
  <path d="M214 239C226 228 239 223 256 223C273 223 286 228 298 239" stroke="#E64C3C" stroke-width="10" stroke-linecap="round" opacity="0.85"/>
</svg>
